<svg width="105" height="28" viewBox="0 0 105 28" fill="none" xmlns="http://www.w3.org/2000/svg">
<path fill-rule="evenodd" clip-rule="evenodd" d="M0 0.017067H4.66687V27.9996H0V0.017067Z" fill="#FB9C04"/>
<path fill-rule="evenodd" clip-rule="evenodd" d="M4.97668 0.016375C9.25657 -0.00253571 11.071 -0.0727757 13.0649 0.343261C17.9137 1.35364 21.107 3.82824 23.1239 8.10478C23.9594 9.87699 24.5335 13.0891 24.1388 16.4282C23.5135 21.6908 19.7871 27.7071 12.2294 27.9989C12.2294 27.672 12.2371 27.3559 12.2371 27.029C20.7482 26.7967 25.6406 17.1711 22.1911 8.43166C20.6047 4.40907 17.2653 2.22893 12.8599 1.32662C10.8558 0.915987 7.25246 0.99163 4.97925 0.999735V0.016375H4.97668Z" fill="#1C4BDD"/>
<path fill-rule="evenodd" clip-rule="evenodd" d="M4.97668 1.87498C7.36266 1.87498 9.76913 1.74261 12.132 2.09381C16.9245 2.80431 19.9563 5.42751 21.4581 9.03946C24.3361 15.9554 20.6483 25.7593 12.2525 26.1969C12.2525 25.87 12.2448 25.5404 12.2448 25.2136C16.7964 24.9191 19.923 21.3234 21.0506 17.398C21.9143 14.3912 21.435 10.6631 20.3253 8.65314C17.1962 2.99342 12.9111 2.69625 4.97925 2.86105V1.87769L4.97668 1.87498Z" fill="#1C4BDD"/>
<path fill-rule="evenodd" clip-rule="evenodd" d="M4.97668 3.62311C12.8035 3.4313 16.5554 4.00673 19.3899 8.76143C20.556 10.7173 21.048 13.843 20.2203 17.0687C19.4335 20.1268 17.2474 23.5902 12.2371 24.3385V23.3551C12.3063 23.3551 16.1941 23.0093 18.3545 19.238C19.9614 16.4365 19.9794 13.0974 19.2874 10.8389C18.2623 7.48901 15.8148 5.62765 12.6497 4.93606C10.661 4.50111 7.2012 4.59296 4.97668 4.60917V3.62581V3.62311Z" fill="#1C4BDD"/>
<path fill-rule="evenodd" clip-rule="evenodd" d="M4.97668 5.48179C10.7712 5.41155 14.4642 5.12789 17.2115 8.76145C17.7651 9.49357 18.2213 10.639 18.4571 11.6035C19.7795 17.0687 16.7989 21.9882 12.2371 22.5339V21.4398C16.9168 21.048 19.3771 14.3644 16.7989 9.96364C14.5513 6.12475 10.9045 6.49216 4.97668 6.48946V5.48179Z" fill="#1C4BDD"/>
<path fill-rule="evenodd" clip-rule="evenodd" d="M5.08203 21.4399H7.57052V24.2819H5.08203V21.4399Z" fill="#FB9C04"/>
<path fill-rule="evenodd" clip-rule="evenodd" d="M7.98328 21.4399H9.43383V23.1878H7.98328V21.4399Z" fill="#FB9C04"/>
<path fill-rule="evenodd" clip-rule="evenodd" d="M9.85095 21.4399H10.8889V22.642H9.85095V21.4399Z" fill="#FB9C04"/>
<path fill-rule="evenodd" clip-rule="evenodd" d="M11.3015 21.4399H12.0268V22.3152H11.3015V21.4399Z" fill="#FB9C04"/>
<path fill-rule="evenodd" clip-rule="evenodd" d="M9.85095 23.2985H10.8889V24.5007H9.85095V23.2985Z" fill="#FB9C04"/>
<path fill-rule="evenodd" clip-rule="evenodd" d="M11.3015 23.2985H12.0268V24.1738H11.3015V23.2985Z" fill="#FB9C04"/>
<path fill-rule="evenodd" clip-rule="evenodd" d="M7.98328 23.8447H9.43383V25.5925H7.98328V23.8447Z" fill="#FB9C04"/>
<path fill-rule="evenodd" clip-rule="evenodd" d="M5.08203 25.158H7.57052V28H5.08203V25.158Z" fill="#FB9C04"/>
<path fill-rule="evenodd" clip-rule="evenodd" d="M9.85095 25.158H10.8889V26.3602H9.85095V25.158Z" fill="#FB9C04"/>
<path fill-rule="evenodd" clip-rule="evenodd" d="M11.3015 25.2648H12.0268V26.1401H11.3015V25.2648Z" fill="#FB9C04"/>
<path fill-rule="evenodd" clip-rule="evenodd" d="M7.98328 26.2517H9.43383V27.9996H7.98328V26.2517Z" fill="#FB9C04"/>
<path fill-rule="evenodd" clip-rule="evenodd" d="M9.85095 26.7963H10.8889V27.9985H9.85095V26.7963Z" fill="#FB9C04"/>
<path fill-rule="evenodd" clip-rule="evenodd" d="M11.3015 27.1243H12.0268V27.9996H11.3015V27.1243Z" fill="#FB9C04"/>
<path d="M51.5641 2.19906L50.8441 0.000518799H53.2441L54.0749 2.19906H51.5641Z" fill="#333333"/>
<path d="M56.6038 2.19906L55.8838 0.000518799H58.2838L59.1146 2.19906H56.6038Z" fill="#333333"/>
<path d="M63.6004 2.19906L64.3204 0.000518799H61.9204L61.0897 2.19906H63.6004Z" fill="#333333"/>
<path d="M49.3118 2.48041C49.3118 2.31436 49.444 2.17975 49.6072 2.17975H65.5949C65.758 2.17975 65.8903 2.31436 65.8903 2.48041V4.32193H49.3118V2.48041Z" fill="#333333"/>
<path d="M49.3118 3.38238H51.6379V6.12586H49.3118V3.38238Z" fill="#333333"/>
<path d="M63.5641 3.38238H65.8903V6.12586H63.5641V3.38238Z" fill="#333333"/>
<path d="M63.2131 5.91939H52.1546V8.08036H58.9485L57.2869 9.99704H49.09V12.2895H57.1023V14.582H54.5915V16.7994H59.5023V12.2895H65.89V9.99704H60.4254L63.2131 5.91939Z" fill="#333333"/>
<path d="M83.1414 0.0954971H80.8386L80.8561 16.8004H83.1414V0.0954971Z" fill="#333333"/>
<path d="M79.9317 2.31974L76.4252 1.09422V3.56412L79.9317 4.86507V2.31974Z" fill="#FB9C04"/>
<path d="M79.2164 6.67598L75.7098 5.45045V7.92036L79.2164 9.2213V6.67598Z" fill="#FB9C04"/>
<path d="M84.52 9.78591L75.1866 11.5394V13.8773L84.52 12.1615V9.78591Z" fill="#333333"/>
<path d="M70.1971 7.20378C70.1807 10.7936 70.0772 12.7536 69.4295 15.9899H67.7198C68.4037 12.6786 68.5086 10.7267 68.5747 7.20378H70.1971Z" fill="#333333"/>
<path d="M74.715 0.000518799C72.1929 0.400516 70.7693 0.48073 68.2252 0.547292V2.54584C69.1786 2.60876 69.702 2.59071 70.6327 2.54584V4.22387H68.0159V6.39211H70.6327V16.7808H72.7436V10.1441L74.715 11.1057V8.69233L72.7436 7.74962V6.39211H74.9243V4.22387H72.7436V2.37616C73.5251 2.3626 73.9582 2.30544 74.715 2.03678V0.000518799Z" fill="#333333"/>
<path d="M36.3029 10.2745C36.0092 12.9089 35.5424 14.2654 34.4741 16.5908H36.6615C37.7463 14.2521 38.1552 12.877 38.4724 10.2935H39.4227L39.4048 16.8001H41.6818V10.2935H42.65C42.9916 12.8507 43.3806 14.2248 44.3533 16.5908H46.6663C45.687 14.2108 45.2297 12.8483 44.8195 10.2935H46.3077V8.06756H41.6818V6.60263H39.4227V8.06756H34.8686V10.2745H36.3029Z" fill="#333333"/>
<path d="M46.2357 5.21368L41.5381 3.57753V5.61321L46.2357 7.34449V5.21368Z" fill="#333333"/>
<path d="M34.0976 9.2085H31.7847C31.4705 12.3047 31.0321 13.9567 29.8662 16.7805H32.3584C33.39 13.9653 33.7887 12.3145 34.0976 9.2085Z" fill="#333333"/>
<path d="M34.0253 5.63141L30.0629 4.47088V6.92512L34.0253 8.06662V5.63141Z" fill="#333333"/>
<path d="M34.2048 1.12286L30.35 0.00038147V2.41657L34.2048 3.5771V1.12286Z" fill="#333333"/>
<path d="M34.8325 0.514763C34.8325 0.346647 34.961 0.210361 35.1194 0.210361H45.9848C46.1432 0.210361 46.2716 0.346647 46.2716 0.514763V2.37922H34.8325V0.514763Z" fill="#333333"/>
<path d="M34.8325 1.42797H37.0917V3.59683H34.8325V1.42797Z" fill="#333333"/>
<path d="M44.0125 1.42797H46.2716V3.59683H44.0125V1.42797Z" fill="#333333"/>
<path d="M39.6015 5.4416C37.7764 6.16217 36.7363 6.58356 34.868 7.28703V5.17524L39.5297 3.44396L39.6015 5.4416Z" fill="#333333"/>
<rect x="89.1633" y="0.000518799" width="2.24001" height="16.5195" fill="#333333"/>
<rect x="91.1497" y="14.2089" width="2.31198" height="3.57679" transform="rotate(90 91.1497 14.2089)" fill="#333333"/>
<path d="M93.0291 2.40532H87.2845V4.58678H93.0291V2.40532Z" fill="#333333"/>
<path d="M104.084 1.60471H93.5701V3.80482H104.084V1.60471Z" fill="#333333"/>
<path d="M99.8936 6.26524V0.000518799H97.7619V6.26524H99.8936Z" fill="#333333"/>
<path d="M93.0291 7.10435L87.2845 8.65189V11.0198L93.0291 9.54685V7.10435Z" fill="#333333"/>
<path d="M103.777 6.07892C103.346 9.06858 102.633 10.5164 100.688 12.7723C101.854 13.5138 102.574 13.8901 104.047 14.45V16.7996C101.815 16.1623 100.702 15.5885 98.899 14.283C96.8246 15.5285 95.6535 16.0661 93.5524 16.7996V14.45C94.8724 13.9256 95.6018 13.5834 96.858 12.7723C94.8753 10.1762 94.3192 8.70977 94.0944 6.07892H103.777ZM96.8033 8.22345C97.2273 9.59082 97.6893 10.2616 98.8815 11.2996C99.8529 10.3385 100.319 9.69101 100.922 8.22345H96.8033Z" fill="#333333"/>
<path d="M102.092 24.9464V23.8934H104.532V25.3897C104.519 26.1253 104.284 26.7416 103.825 27.2387C103.364 27.7324 102.783 27.986 102.083 27.9994C101.543 27.986 101.092 27.8449 100.731 27.5762C100.364 27.3176 100.097 27.0187 99.9303 26.6794C99.8801 26.5686 99.8346 26.4628 99.7937 26.3621C99.7561 26.2579 99.7247 26.1269 99.6996 25.9691C99.6525 25.6735 99.6289 25.1059 99.6289 24.2662C99.6289 23.4131 99.6525 22.8422 99.6996 22.5533C99.7498 22.2645 99.8267 22.0311 99.9303 21.8531C100.097 21.5138 100.364 21.2115 100.731 20.9462C101.092 20.6775 101.543 20.5398 102.083 20.5331C102.745 20.5398 103.285 20.7497 103.703 21.1628C104.12 21.5793 104.384 22.0949 104.494 22.7095H103.392C103.307 22.4139 103.153 22.162 102.93 21.9538C102.698 21.7556 102.416 21.6532 102.083 21.6465C101.838 21.6532 101.627 21.7053 101.452 21.8027C101.273 21.9034 101.128 22.0294 101.018 22.1805C100.883 22.3384 100.794 22.5416 100.75 22.7901C100.7 23.0521 100.674 23.5441 100.674 24.2662C100.674 24.9884 100.7 25.477 100.75 25.7323C100.794 25.9876 100.883 26.1941 101.018 26.352C101.128 26.5031 101.273 26.6257 101.452 26.7198C101.627 26.8306 101.838 26.886 102.083 26.886C102.488 26.886 102.822 26.7382 103.086 26.4427C103.35 26.1605 103.485 25.7894 103.491 25.3293V24.9464H102.092Z" fill="#999999"/>
<path d="M92.683 27.9386V20.5932H93.6626L96.7711 25.8126H96.7899V20.5932H97.8308V27.9386H96.8464L93.7427 22.7192H93.7238V27.9386H92.683Z" fill="#999999"/>
<path d="M89.6177 27.9386V20.5932H90.6585V27.9386H89.6177Z" fill="#999999"/>
<path d="M82.4351 27.9386V20.5932H83.4147L86.5232 25.8126H86.542V20.5932H87.5829V27.9386H86.5985L83.4948 22.7192H83.4759V27.9386H82.4351Z" fill="#999999"/>
<path d="M77.0108 21.5857V23.8125H78.5839C78.9732 23.8058 79.2653 23.6848 79.4599 23.4497C79.6515 23.2314 79.7472 22.9627 79.7472 22.6437C79.7409 22.2608 79.6263 21.9837 79.4034 21.8124C79.2276 21.6612 78.9732 21.5857 78.6404 21.5857H77.0108ZM75.97 27.9386V20.5932H78.6498C79.2213 20.5932 79.6876 20.7544 80.0486 21.0768C80.4851 21.4429 80.7127 21.9652 80.7316 22.6437C80.719 23.6412 80.2763 24.3196 79.4034 24.679L80.9953 27.9386H79.7566L78.339 24.7999H77.0108V27.9386H75.97Z" fill="#999999"/>
<path d="M70.7182 25.3088H72.7246L71.7308 22.0996H71.712L70.7182 25.3088ZM73.5535 27.9386L73.0213 26.2962H70.4168L69.8893 27.9386H68.7872L71.2834 20.5932H72.1547L74.6509 27.9386H73.5535Z" fill="#999999"/>
<path d="M63.5553 27.9386V20.5932H67.9401V21.6461H64.5962V23.7419H67.4503V24.7294H64.5962V26.8856H67.9401V27.9386H63.5553Z" fill="#999999"/>
<path d="M57.6082 27.9386V20.5932H58.649V26.8856H61.993V27.9386H57.6082Z" fill="#999999"/>
<path d="M49.4555 21.6461V24.019H50.9956C51.3818 24.0123 51.6723 23.8847 51.8669 23.6361C52.0522 23.3943 52.1448 23.1256 52.1448 22.8301C52.1448 22.5849 52.1071 22.3783 52.0318 22.2104C51.9533 22.0592 51.8434 21.94 51.7021 21.8527C51.4886 21.7083 51.2405 21.6394 50.958 21.6461H49.4555ZM48.4147 27.9386V20.5932H50.9014C51.1715 20.5932 51.4321 20.6201 51.6833 20.6738C51.9345 20.7443 52.1888 20.8888 52.4463 21.1071C52.6629 21.2716 52.8387 21.5067 52.9737 21.8124C53.115 22.1079 53.1857 22.4573 53.1857 22.8603C53.1857 23.4044 53.0067 23.8998 52.6488 24.3465C52.2814 24.8167 51.7445 25.0585 51.038 25.072H49.4555V27.9386H48.4147Z" fill="#999999"/>
<path d="M42.4681 27.9386V20.5932H46.853V21.6461H43.509V23.7419H46.3631V24.7294H43.509V26.8856H46.853V27.9386H42.4681Z" fill="#999999"/>
<path d="M36.5201 27.9386V20.5932H40.905V21.6461H37.561V23.7419H40.4151V24.7294H37.561V26.8856H40.905V27.9386H36.5201Z" fill="#999999"/>
<path d="M29.8651 27.9386V20.5932H32.2671C33.1965 20.5999 33.8936 21.013 34.3583 21.8325C34.5247 22.1079 34.6298 22.3968 34.6738 22.6991C34.7083 23.0014 34.7256 23.5236 34.7256 24.2659C34.7256 25.0552 34.6989 25.606 34.6455 25.9184C34.6204 26.0762 34.5828 26.2173 34.5325 26.3415C34.4791 26.4625 34.4148 26.5884 34.3394 26.7194C34.1385 27.0653 33.859 27.3508 33.5011 27.5759C33.1463 27.8177 32.7114 27.9386 32.1965 27.9386H29.8651ZM30.906 21.6461V26.8856H32.1494C32.7334 26.8856 33.1573 26.6724 33.421 26.2458C33.5372 26.088 33.611 25.8881 33.6424 25.6463C33.6706 25.4078 33.6848 24.9611 33.6848 24.3062C33.6848 23.668 33.6706 23.2113 33.6424 22.9359C33.6047 22.6604 33.5152 22.4371 33.3739 22.2658C33.085 21.8393 32.6769 21.6327 32.1494 21.6461H30.906Z" fill="#999999"/>
</svg>
